<svg xmlns="http://www.w3.org/2000/svg" width="111" height="48" fill="none"><path fill="#fff" d="M0 48V31.679c0-.712.178-1.358.534-1.938.356-.6.824-1.077 1.404-1.433a3.782 3.782 0 0 1 1.967-.534h12.388c.712 0 1.367.178 1.966.534a4.04 4.04 0 0 1 1.433 1.433c.356.58.534 1.226.534 1.938V48H16.49v-6.798H3.708V48H0Zm3.708-10.506H16.49v-5.647a.267.267 0 0 0-.113-.224.35.35 0 0 0-.252-.113H4.045a.35.35 0 0 0-.253.113.304.304 0 0 0-.084.224v5.647ZM30.771 48v-7.585l-9.326-12.64h4.382l6.826 8.567 6.742-8.568h4.467l-9.355 12.67V48h-3.736ZM45.594 48V27.774h16.293c.712 0 1.367.178 1.966.534a4.04 4.04 0 0 1 1.433 1.433c.356.58.534 1.226.534 1.938v12.416c0 .712-.178 1.367-.534 1.967a4.117 4.117 0 0 1-1.433 1.404c-.599.356-1.254.534-1.966.534H45.594Zm4.017-3.736H61.72a.41.41 0 0 0 .252-.084.35.35 0 0 0 .113-.253v-12.08a.267.267 0 0 0-.113-.224.35.35 0 0 0-.252-.113H49.61a.35.35 0 0 0-.253.113.304.304 0 0 0-.084.224v12.08c0 .093.028.178.084.253.075.056.16.084.253.084ZM69.022 48V27.774h18.625v3.736H72.758v4.495h11.967v3.764H72.758v4.495h14.889V48H69.022ZM90.473 48V27.774h4.074l12.416 14.776V27.774h3.736V48h-4.073L94.181 33.196V48h-3.708Z"/><path fill="url(#a)" d="M0 20.226V0h15.507c.711 0 1.357.178 1.938.534.6.356 1.077.833 1.433 1.432.355.581.533 1.227.533 1.939v3.96c0 .244-.018.478-.056.703-.037.225-.103.44-.197.646.319.43.572.88.759 1.348.206.469.309.937.309 1.405v4.354c0 .712-.178 1.367-.534 1.967a4.116 4.116 0 0 1-1.433 1.404c-.599.356-1.254.534-1.966.534H0Zm4.045-3.736h12.08a.41.41 0 0 0 .252-.084.35.35 0 0 0 .113-.253v-4.017a.267.267 0 0 0-.113-.225.35.35 0 0 0-.252-.112H4.045a.35.35 0 0 0-.253.112.304.304 0 0 0-.084.225v4.017a.41.41 0 0 0 .084.253.41.41 0 0 0 .253.084Zm0-8.428h11.293a.304.304 0 0 0 .225-.084.41.41 0 0 0 .084-.253V4.073a.304.304 0 0 0-.084-.224.267.267 0 0 0-.225-.113H4.045a.35.35 0 0 0-.253.113.304.304 0 0 0-.084.224v3.652a.41.41 0 0 0 .084.253.41.41 0 0 0 .253.084Z"/><path fill="url(#b)" d="M23.345 20.226V0H41.97v3.736H27.08v4.495h11.967v3.764H27.081v4.495H41.97v3.736H23.345Z"/><path fill="url(#c)" d="M44.796 20.226V0h4.074l12.416 14.776V0h3.736v20.226H60.95L48.505 5.422v14.804h-3.709Z"/><defs><linearGradient id="a" x1="0" x2="77.846" y1="0" y2="9.738" gradientUnits="userSpaceOnUse"><stop offset=".183" stop-color="#FF56F6"/><stop offset=".433" stop-color="#B936EE"/><stop offset=".854" stop-color="#3BACE2"/><stop offset="1" stop-color="#406AFF"/></linearGradient><linearGradient id="b" x1="0" x2="77.846" y1="0" y2="9.738" gradientUnits="userSpaceOnUse"><stop offset=".183" stop-color="#FF56F6"/><stop offset=".433" stop-color="#B936EE"/><stop offset=".854" stop-color="#3BACE2"/><stop offset="1" stop-color="#406AFF"/></linearGradient><linearGradient id="c" x1="0" x2="77.846" y1="0" y2="9.738" gradientUnits="userSpaceOnUse"><stop offset=".183" stop-color="#FF56F6"/><stop offset=".433" stop-color="#B936EE"/><stop offset=".854" stop-color="#3BACE2"/><stop offset="1" stop-color="#406AFF"/></linearGradient></defs></svg>